<svg width="16" height="16" viewBox="0 0 22 22" fill="none" xmlns="http://www.w3.org/2000/svg">
    <path d="M15.5733 9.08667L18 9.6V12.4L15.5733 12.9133L16.9733 14.9667L14.9667 16.9267L12.9133 15.5733L12.4 18H9.6L9.08667 15.5733L7.03333 16.9733L5.07333 14.9667L6.42667 12.9133L4 12.4V9.6L6.42667 9.08667L5.07333 7.03333L7.03333 5.02667L9.08667 6.42667L9.6 4H12.4L12.9133 6.42667L14.9667 5.02667L16.9733 7.03333L15.5733 9.08667ZM14.6867 12.0733L17.02 11.6067V10.44L14.6867 9.92667L14.36 9.18L15.6667 7.17333L14.8733 6.33333L12.8667 7.68667L12.0733 7.36L11.6067 5.02667H10.44L9.97333 7.36L9.22667 7.68667L7.22 6.33333L6.38 7.17333L7.73333 9.18L7.40667 9.92667L5.07333 10.44V11.6067L7.40667 12.0733L7.73333 12.82L6.38 14.8267L7.22 15.6667L9.22667 14.3133L9.97333 14.64L10.44 16.9733H11.6067L12.0733 14.64L12.8667 14.3133L14.8733 15.6667L15.6667 14.8267L14.36 12.82L14.6867 12.0733ZM9.88 9.32C10.2222 9.10222 10.5956 8.99333 11 8.99333C11.56 8.99333 12.0267 9.19556 12.4 9.6C12.8044 9.97333 13.0067 10.44 13.0067 11C13.0067 11.4667 12.8511 11.8867 12.54 12.26C12.2289 12.6333 11.84 12.8667 11.3733 12.96C10.9067 13.0533 10.4556 12.9911 10.02 12.7733C9.61556 12.5556 9.32 12.2289 9.13333 11.7933C8.97778 11.3267 8.96222 10.8756 9.08667 10.44C9.21111 9.97333 9.47556 9.6 9.88 9.32ZM10.44 11.84C10.6267 11.9333 10.8133 11.98 11 11.98C11.28 11.98 11.5133 11.8867 11.7 11.7C11.8867 11.5133 11.98 11.2956 11.98 11.0467C11.98 10.7667 11.9022 10.5489 11.7467 10.3933C11.6222 10.2067 11.4356 10.0978 11.1867 10.0667C10.9689 10.0044 10.7511 10.0356 10.5333 10.16C10.3156 10.2533 10.16 10.4089 10.0667 10.6267C9.97333 10.8444 9.95778 11.0778 10.02 11.3267C10.1133 11.5444 10.2533 11.7156 10.44 11.84Z" fill="currentColor"/>
</svg>
    